<?xml version="1.0" encoding="UTF-8" standalone="no"?>
<!-- Created with Inkscape (http://www.inkscape.org/) -->

<svg
   xmlns:dc="http://purl.org/dc/elements/1.1/"
   xmlns:cc="http://creativecommons.org/ns#"
   xmlns:rdf="http://www.w3.org/1999/02/22-rdf-syntax-ns#"
   xmlns:svg="http://www.w3.org/2000/svg"
   xmlns="http://www.w3.org/2000/svg"
   xmlns:sodipodi="http://sodipodi.sourceforge.net/DTD/sodipodi-0.dtd"
   xmlns:inkscape="http://www.inkscape.org/namespaces/inkscape"
   width="6.3499999mm"
   height="6.3500051mm"
   viewBox="0 0 6.3499999 6.3500051"
   version="1.1"
   id="svg8"
   inkscape:version="0.92.4 (5da689c313, 2019-01-14)"
   sodipodi:docname="icon-instagram2.svg">
  <defs
     id="defs2" />
  <sodipodi:namedview
     id="base"
     pagecolor="#ffffff"
     bordercolor="#666666"
     borderopacity="1.0"
     inkscape:pageopacity="0.0"
     inkscape:pageshadow="2"
     inkscape:zoom="5.6"
     inkscape:cx="101.185"
     inkscape:cy="-4.1447247"
     inkscape:document-units="mm"
     inkscape:current-layer="layer1"
     showgrid="false"
     inkscape:window-width="1920"
     inkscape:window-height="1027"
     inkscape:window-x="-8"
     inkscape:window-y="-8"
     inkscape:window-maximized="1"
     fit-margin-top="0"
     fit-margin-left="0"
     fit-margin-right="0"
     fit-margin-bottom="0" />
  <metadata
     id="metadata5">
    <rdf:RDF>
      <cc:Work
         rdf:about="">
        <dc:format>image/svg+xml</dc:format>
        <dc:type
           rdf:resource="http://purl.org/dc/dcmitype/StillImage" />
        <dc:title></dc:title>
      </cc:Work>
    </rdf:RDF>
  </metadata>
  <g
     inkscape:label="Layer 1"
     inkscape:groupmode="layer"
     id="layer1"
     transform="translate(485.24582,64.817711)">
    <path
       id="path4529"
       d="m -479.24639,-64.817711 h -5.64886 c -0.19367,0 -0.35057,0.156898 -0.35057,0.350573 v 5.649119 c 0,0.19341 0.1569,0.350308 0.35057,0.350308 h 3.04139 v -2.459037 h -0.82762 v -0.958321 h 0.82762 v -0.706702 c 0,-0.820209 0.50085,-1.266825 1.23269,-1.266825 0.35058,0 0.65167,0.02619 0.73951,0.03784 v 0.85725 l -0.50747,2.65e-4 c -0.39793,0 -0.47493,0.189177 -0.47493,0.46646 v 0.611981 h 0.94906 l -0.12356,0.958321 h -0.8255 v 2.458773 h 1.6182 c 0.19314,0 0.35004,-0.156898 0.35004,-0.350573 v -5.648854 c 0,-0.193675 -0.1569,-0.350573 -0.35057,-0.350573 z"
       inkscape:connector-curvature="0"
       style="fill:#000000;fill-opacity:1;stroke-width:0.26458332" />
  </g>
</svg>
