<?xml version="1.0" encoding="UTF-8" standalone="no"?>
<!-- Created with Inkscape (http://www.inkscape.org/) -->

<svg
   xmlns:dc="http://purl.org/dc/elements/1.1/"
   xmlns:cc="http://creativecommons.org/ns#"
   xmlns:rdf="http://www.w3.org/1999/02/22-rdf-syntax-ns#"
   xmlns:svg="http://www.w3.org/2000/svg"
   xmlns="http://www.w3.org/2000/svg"
   xmlns:sodipodi="http://sodipodi.sourceforge.net/DTD/sodipodi-0.dtd"
   xmlns:inkscape="http://www.inkscape.org/namespaces/inkscape"
   width="6.3499999mm"
   height="5.1604309mm"
   viewBox="0 0 6.3499999 5.1604309"
   version="1.1"
   id="svg8"
   inkscape:version="0.92.4 (5da689c313, 2019-01-14)"
   sodipodi:docname="icon-instagram2.svg">
  <defs
     id="defs2" />
  <sodipodi:namedview
     id="base"
     pagecolor="#ffffff"
     bordercolor="#666666"
     borderopacity="1.0"
     inkscape:pageopacity="0.0"
     inkscape:pageshadow="2"
     inkscape:zoom="5.6"
     inkscape:cx="106.61364"
     inkscape:cy="-10.071298"
     inkscape:document-units="mm"
     inkscape:current-layer="layer1"
     showgrid="false"
     inkscape:window-width="1920"
     inkscape:window-height="1027"
     inkscape:window-x="-8"
     inkscape:window-y="-8"
     inkscape:window-maximized="1"
     fit-margin-top="0"
     fit-margin-left="0"
     fit-margin-right="0"
     fit-margin-bottom="0" />
  <metadata
     id="metadata5">
    <rdf:RDF>
      <cc:Work
         rdf:about="">
        <dc:format>image/svg+xml</dc:format>
        <dc:type
           rdf:resource="http://purl.org/dc/dcmitype/StillImage" />
        <dc:title></dc:title>
      </cc:Work>
    </rdf:RDF>
  </metadata>
  <g
     inkscape:label="Layer 1"
     inkscape:groupmode="layer"
     id="layer1"
     transform="translate(486.68215,65.196209)">
    <path
       id="path4551"
       d="m -480.33215,-64.585285 a 2.6008542,2.6008542 0 0 1 -0.74824,0.205052 1.304925,1.304925 0 0 0 0.57282,-0.720725 2.60985,2.60985 0 0 1 -0.82735,0.316177 1.3006917,1.3006917 0 0 0 -0.95091,-0.411427 c -0.84111,0 -1.45918,0.784754 -1.26921,1.599406 a 3.6983458,3.6983458 0 0 1 -2.68499,-1.361017 1.3043958,1.3043958 0 0 0 0.40296,1.739371 1.2972521,1.2972521 0 0 1 -0.58976,-0.162983 c -0.0143,0.603514 0.41831,1.168135 1.04484,1.293812 a 1.3057187,1.3057187 0 0 1 -0.58843,0.02222 1.3038667,1.3038667 0 0 0 1.21708,0.904611 2.619375,2.619375 0 0 1 -1.92881,0.53975 3.6882917,3.6882917 0 0 0 1.99707,0.585258 c 2.41883,0 3.7854,-2.042848 3.70285,-3.875087 a 2.6524479,2.6524479 0 0 0 0.65008,-0.674423 z"
       inkscape:connector-curvature="0"
       style="fill:#000000;stroke-width:0.26458332;fill-opacity:1" />
  </g>
</svg>
