<?xml version="1.0" encoding="UTF-8" standalone="no"?>
<!-- Created with Inkscape (http://www.inkscape.org/) -->

<svg
   xmlns:dc="http://purl.org/dc/elements/1.1/"
   xmlns:cc="http://creativecommons.org/ns#"
   xmlns:rdf="http://www.w3.org/1999/02/22-rdf-syntax-ns#"
   xmlns:svg="http://www.w3.org/2000/svg"
   xmlns="http://www.w3.org/2000/svg"
   xmlns:sodipodi="http://sodipodi.sourceforge.net/DTD/sodipodi-0.dtd"
   xmlns:inkscape="http://www.inkscape.org/namespaces/inkscape"
   width="6.3500299mm"
   height="6.3500009mm"
   viewBox="0 0 6.3500299 6.3500008"
   version="1.1"
   id="svg8"
   inkscape:version="0.92.4 (5da689c313, 2019-01-14)"
   sodipodi:docname="icon-instagram2.svg">
  <defs
     id="defs2" />
  <sodipodi:namedview
     id="base"
     pagecolor="#ffffff"
     bordercolor="#666666"
     borderopacity="1.0"
     inkscape:pageopacity="0.0"
     inkscape:pageshadow="2"
     inkscape:zoom="5.6"
     inkscape:cx="103.54221"
     inkscape:cy="-6.0732934"
     inkscape:document-units="mm"
     inkscape:current-layer="layer1"
     showgrid="false"
     inkscape:window-width="1920"
     inkscape:window-height="1027"
     inkscape:window-x="-8"
     inkscape:window-y="-8"
     inkscape:window-maximized="1"
     fit-margin-top="0"
     fit-margin-left="0"
     fit-margin-right="0"
     fit-margin-bottom="0" />
  <metadata
     id="metadata5">
    <rdf:RDF>
      <cc:Work
         rdf:about="">
        <dc:format>image/svg+xml</dc:format>
        <dc:type
           rdf:resource="http://purl.org/dc/dcmitype/StillImage" />
        <dc:title></dc:title>
      </cc:Work>
    </rdf:RDF>
  </metadata>
  <g
     inkscape:label="Layer 1"
     inkscape:groupmode="layer"
     id="layer1"
     transform="translate(485.8695,65.327974)">
    <path
       id="path4540"
       d="m -482.6945,-65.327974 c -1.75339,0 -3.175,1.421342 -3.175,3.175 0,1.345142 0.83688,2.493962 2.01798,2.956454 -0.0278,-0.251089 -0.0529,-0.636323 0.0111,-0.910431 0.0577,-0.247915 0.37227,-1.57824 0.37227,-1.57824 0,0 -0.095,-0.190235 -0.095,-0.471487 0,-0.441325 0.25585,-0.770996 0.57441,-0.770996 0.27067,0 0.40164,0.203465 0.40164,0.447146 0,0.272256 -0.1733,0.67945 -0.263,1.05701 -0.0749,0.315913 0.15849,0.573882 0.47017,0.573882 0.56436,0 0.99801,-0.595048 0.99801,-1.453886 0,-0.760148 -0.5461,-1.291696 -1.32609,-1.291696 -0.90329,0 -1.43352,0.677598 -1.43352,1.377686 0,0.272785 0.10504,0.565679 0.23628,0.724429 a 0.09525,0.09525 0 0 1 0.022,0.09128 l -0.0881,0.359833 c -0.014,0.05821 -0.046,0.07064 -0.10636,0.0426 -0.39661,-0.184679 -0.64453,-0.764381 -0.64453,-1.230048 0,-1.001448 0.72761,-1.921404 2.09788,-1.921404 1.10146,0 1.95739,0.785019 1.95739,1.833827 0,1.094317 -0.68977,1.97485 -1.64756,1.97485 -0.32173,0 -0.62415,-0.166952 -0.7276,-0.364596 l -0.19791,0.754857 c -0.0717,0.27596 -0.26511,0.621771 -0.39476,0.832379 0.29739,0.09181 0.61304,0.141552 0.94033,0.141552 1.75339,0 3.175,-1.421606 3.175,-3.175 0,-1.753658 -1.42161,-3.175 -3.175,-3.175 z"
       inkscape:connector-curvature="0"
       style="fill:#000000;fill-opacity:1;stroke-width:0.26458332" />
  </g>
</svg>
